<?xml version="1.0" ?><!DOCTYPE svg  PUBLIC '-//W3C//DTD SVG 1.1//EN'  'http://www.w3.org/Graphics/SVG/1.1/DTD/svg11.dtd'><svg height="0.796945in" style="shape-rendering:geometricPrecision; text-rendering:geometricPrecision; image-rendering:optimizeQuality; fill-rule:evenodd; clip-rule:evenodd" version="1.1" viewBox="0 0 468 360" width="1.03763in" xml:space="preserve" xmlns="http://www.w3.org/2000/svg" xmlns:xlink="http://www.w3.org/1999/xlink"><defs><style type="text/css">
   <![CDATA[
    .fil1 {fill:#FEFEFE}
    .fil0 {fill:#201E1E}
   ]]>
  </style></defs><g id="Layer_x0020_1"><g id="_468308968"><ellipse class="fil0" cx="234" cy="290" rx="234" ry="70"/><path class="fil0" d="M83 273c-18,7 -41,-6 -40,-29 1,-35 -5,-70 -9,-105 -1,-5 -2,-9 -2,-14 -4,-22 -6,-44 10,-63 1,-2 3,-3 5,-4 -8,-16 -1,-37 19,-42 65,-13 132,-19 199,-15 38,2 77,0 115,1 15,1 26,12 28,25 2,4 3,9 2,13 0,4 -1,8 -3,11 0,1 0,1 0,1 1,1 2,2 3,3 6,4 10,11 10,19 5,55 3,109 3,164 0,23 -27,39 -46,25 -2,-1 -3,-1 -4,-2 -5,10 -15,18 -28,18 -79,1 -156,18 -236,13 -12,-1 -22,-9 -26,-19z"/><path class="fil1" d="M386 33c2,-4 -2,-9 -7,-9 -38,-1 -77,1 -116,-1 -64,-4 -130,2 -192,15 -7,1 -7,10 -2,13 0,1 0,2 1,3 22,28 56,52 84,73 24,18 65,49 98,41 30,-7 50,-33 71,-53 15,-15 46,-36 54,-59 2,-3 4,-5 6,-8 0,0 1,-1 1,-1 1,-1 1,-2 1,-2 1,-1 1,-1 2,-2 0,-1 2,-4 1,-2 1,-3 0,-6 -2,-8zm-34 210c0,0 0,0 0,0 -5,-11 -16,-20 -24,-28 -15,-17 -30,-32 -48,-46 -3,-2 -7,-1 -10,1 -2,3 -4,4 -6,6 -6,0 -11,0 -17,0 -24,2 -37,5 -60,-11 -3,-2 -8,-1 -10,2 -21,25 -37,53 -57,79 -3,3 -6,6 -9,8 0,0 0,0 0,0 -10,1 -10,15 0,16 78,5 156,-12 234,-13 7,0 11,-9 7,-14zm47 -167c-1,-3 -3,-5 -5,-5 -1,-6 -11,-7 -14,-2 -3,4 -6,8 -8,12 -8,7 -13,16 -18,23 -15,17 -28,35 -43,52 -3,4 -3,9 0,12 24,28 47,57 78,77 5,4 12,-1 12,-7 0,-54 2,-108 -2,-162zm-274 44c-8,-5 -16,-9 -24,-13 -7,-5 -14,-9 -20,-14 -2,-2 -4,-3 -6,-5 -1,-2 -2,-4 -5,-4 -1,-1 -2,-2 -3,-2 -1,-1 -3,-2 -4,-2 -1,-1 -2,-3 -4,-4 0,0 0,0 0,0 -14,17 -6,40 -4,60 5,37 11,72 10,109 0,7 9,10 14,6 28,-25 68,-66 71,-105 1,-14 -16,-21 -25,-26z"/></g></g></svg>