<svg width="72" height="105" viewBox="0 0 72 105" fill="none" xmlns="http://www.w3.org/2000/svg">
<path d="M41.7942 81.1741H39.333V92.8693H41.7942V81.1741Z" fill="#F0E1D4" stroke="#D8BAA3" stroke-width="5" stroke-miterlimit="10" stroke-linecap="round"/>
<path d="M37.9966 69.6355H43.0478V80.5266C43.0474 80.8245 42.9212 81.1101 42.6971 81.3205C42.473 81.5309 42.1693 81.649 41.8527 81.6488H39.1891C38.8724 81.6488 38.5686 81.5304 38.3447 81.3196C38.1207 81.1089 37.9949 80.823 37.9949 80.525V69.6355H37.9966Z" fill="white" stroke="#D8BAA3" stroke-width="5" stroke-miterlimit="10" stroke-linecap="round"/>
<path d="M49.3642 95.5244V99.0707H46.9521V97.6372C46.9521 96.9331 46.6548 96.2578 46.1257 95.7599C45.5965 95.2619 44.8788 94.9822 44.1305 94.9822H37.2573C36.509 94.9822 35.7914 95.2619 35.2622 95.7599C34.7331 96.2578 34.4358 96.9331 34.4358 97.6372V99.0707H32.0237V95.5244C32.0237 94.8202 32.321 94.1449 32.8501 93.647C33.3792 93.1491 34.0969 92.8694 34.8452 92.8694H46.5435C47.2917 92.8696 48.0091 93.1494 48.5381 93.6473C49.067 94.1452 49.3642 94.8204 49.3642 95.5244Z" fill="#F0E1D4" stroke="#D8BAA3" stroke-width="5" stroke-miterlimit="10" stroke-linecap="round"/>
<path d="M48.1449 102.478C49.5287 102.478 50.6505 101.422 50.6505 100.12C50.6505 98.8182 49.5287 97.7627 48.1449 97.7627C46.7612 97.7627 45.6394 98.8182 45.6394 100.12C45.6394 101.422 46.7612 102.478 48.1449 102.478Z" fill="white" stroke="#D8BAA3" stroke-width="5" stroke-miterlimit="10" stroke-linecap="round"/>
<path d="M33.1293 102.478C34.5131 102.478 35.6348 101.422 35.6348 100.12C35.6348 98.8182 34.5131 97.7627 33.1293 97.7627C31.7455 97.7627 30.6238 98.8182 30.6238 100.12C30.6238 101.422 31.7455 102.478 33.1293 102.478Z" fill="white" stroke="#D8BAA3" stroke-width="5" stroke-miterlimit="10" stroke-linecap="round"/>
<path d="M46.3706 64.1933L52.5977 46.9727H57.0501L50.8229 64.1933H46.3706Z" fill="#F0E1D4" stroke="#D8BAA3" stroke-width="5" stroke-miterlimit="10" stroke-linecap="round"/>
<path d="M45.1482 64.1933L51.3753 46.9727H55.8277L49.6005 64.1933H45.1482Z" fill="white" stroke="#D8BAA3" stroke-width="5" stroke-miterlimit="10" stroke-linecap="round"/>
<path d="M60.2604 66.163C60.2604 66.4982 59.7226 66.8202 58.7501 67.1077C55.8744 67.9653 49.2029 68.5666 41.4314 68.5666C34.2789 68.5666 28.0587 68.0573 24.8705 67.3073C24.5946 67.2427 24.3418 67.1762 24.1119 67.1077C23.1393 66.8177 22.6016 66.4982 22.6016 66.163C22.6016 65.8788 22.9866 65.6069 23.6946 65.3539C26.2961 64.4239 33.2557 63.7585 41.4314 63.7585C51.8307 63.7585 60.2604 64.8355 60.2604 66.163Z" fill="white" stroke="#D8BAA3" stroke-width="5" stroke-miterlimit="10" stroke-linecap="round"/>
<path d="M60.2608 66.1631V68.0525C60.2608 69.38 51.831 70.4561 41.4318 70.4561C34.2793 70.4561 28.0591 69.9468 24.8709 69.1968C23.4234 68.8567 22.6011 68.4673 22.6011 68.0525V66.1631C22.6011 66.4982 23.1388 66.8203 24.1114 67.1078C24.3407 67.1762 24.5936 67.2428 24.87 67.3074C28.0582 68.0574 34.2784 68.5667 41.4309 68.5667C49.2007 68.5667 55.8739 67.9654 58.7496 67.1078C59.723 66.8178 60.2608 66.4982 60.2608 66.1631Z" fill="#F0E1D4" stroke="#D8BAA3" stroke-width="5" stroke-miterlimit="10" stroke-linecap="round"/>
<path d="M69.417 36.1208H45.6494C45.0426 36.1208 44.49 36.5209 44.2307 37.1485L37.8796 54.678C37.6177 55.304 38.0211 56.0252 38.6269 56.0252H62.0933C62.879 56.0252 63.6001 55.5052 63.9362 54.6887L70.1642 37.4681C70.4227 36.8413 70.0228 36.1208 69.417 36.1208Z" fill="white" stroke="#D8BAA3" stroke-width="5" stroke-miterlimit="10" stroke-linecap="round"/>
<path d="M29.4352 102.801H18.7662C18.7662 102.801 18.6204 101.191 19.9884 100.967C21.146 100.777 22.246 99.6315 22.246 99.6315C22.246 99.6315 24.9218 100.951 26.5237 98.8265C28.1257 96.7021 27.9092 94.4727 27.9092 94.4727C28.4173 95.0526 29.8639 96.4573 29.9232 98.6507C29.9466 100.048 29.7826 101.442 29.4352 102.801Z" fill="#FF0287"/>
<path d="M17.7826 59.0612C15.9999 59.2896 14.1328 62.2085 16.3145 68.1379C18.4961 74.0673 24.9456 92.6909 24.8653 94.4086C24.7579 96.7021 22.2463 99.6315 22.2463 99.6315C22.2463 99.6315 24.922 100.951 26.524 98.8265C28.1259 96.7021 27.9086 94.4726 27.9086 94.4726C27.9086 94.4726 28.9125 83.2794 26.524 71.589C25.4275 66.237 20.9874 58.6497 17.7826 59.0612Z" fill="#FAB6AD"/>
<path d="M37.7217 102.801H27.0519C27.0519 102.801 26.9061 101.191 28.2741 100.967C29.4308 100.777 30.5317 99.6315 30.5317 99.6315C30.5317 99.6315 33.2074 100.951 34.8094 98.8265C36.4114 96.7021 36.194 94.4727 36.194 94.4727C36.7029 95.0526 38.1486 96.4573 38.2089 98.6507C38.2325 100.048 38.0688 101.442 37.7217 102.801Z" fill="#FF0287"/>
<path d="M26.0689 59.0096C24.6267 60.0208 26.343 62.5583 28.5256 68.4886C30.7081 74.4188 32.2174 92.2953 33.1507 94.4087C33.0049 96.1223 30.5317 99.6316 30.5317 99.6316C30.5317 99.6316 33.2075 100.951 34.8094 98.8266C36.4114 96.7022 36.194 94.4727 36.194 94.4727C36.194 94.4727 38.3184 77.7069 37.1399 70.5346C36.2581 65.1481 30.0742 56.1976 26.0689 59.0096Z" fill="#FFCFC9"/>
<path d="M52.2344 47.1318C52.2344 47.1318 57.7061 53.8898 59.0078 58.8392C60.4282 64.2412 54.7923 67.4749 46.7502 67.539C40.2995 67.5907 41.5558 71.4977 41.5558 71.4977C41.5558 71.4977 38.5308 73.0535 35.2702 71.4977C31.8288 69.8547 30.0863 70.7066 27.6235 71.6003C24.5226 72.7315 21.729 70.553 19.3265 70.4158C15.7209 70.2104 14.7406 72.628 10.9666 70.5193C10.9666 70.5193 9.60554 61.5266 15.2862 58.0829C20.9668 54.6393 39.3 50.9418 38.578 47.4407L52.2344 47.1318Z" fill="#4707FB"/>
<path d="M19.7676 52.3975L15.8487 52.9726C15.3546 54.1005 14.19 55.3803 13.9412 55.5044C13.6714 55.6358 12.2694 56.3472 12.2694 56.3472C12.2694 56.3472 12.0022 55.9135 12.2283 55.5339C12.3767 55.2875 13.2943 54.8644 13.1886 54.5186C13.083 54.1728 12.5348 54.213 12.2921 54.3149C11.7106 54.5613 10.6665 55.1758 10.7783 56.0917C10.8743 56.8647 10.1191 56.9378 10.1191 56.9378C10.1191 56.9378 9.7228 55.9521 9.69574 55.7656C9.66868 55.5791 9.83018 53.7316 10.3068 53.1894C10.6875 52.7598 12.5426 51.9194 13.578 51.4849L18.816 49.2529L19.7676 52.3975Z" fill="#FFCFC9"/>
<path d="M36.6576 35.4489C36.6576 35.4489 37.4773 46.2348 34.9116 48.9851C32.3458 51.7355 23.6638 53.3406 19.6741 52.4863L18.6807 49.2209C22.6214 46.7146 28.371 43.4311 28.371 43.4311C28.371 43.4311 30.2847 28.3184 33.3402 26.434C36.3957 24.5495 36.5546 33.3155 36.6576 35.4489Z" fill="#FF0287"/>
<path d="M18.7151 49.3064C19.2511 50.2654 19.5602 51.3222 19.6213 52.4042" stroke="white" stroke-width="4" stroke-miterlimit="10" stroke-linecap="round"/>
<path d="M18.9946 49.8576L21.2173 48.7166" stroke="white" stroke-width="4" stroke-miterlimit="10" stroke-linecap="round"/>
<path d="M19.2271 50.4425L20.6378 50.0251" stroke="white" stroke-width="4" stroke-miterlimit="10" stroke-linecap="round"/>
<path d="M19.4629 51.268L22.2792 50.8564" stroke="white" stroke-width="4" stroke-miterlimit="10" stroke-linecap="round"/>
<path d="M19.6211 51.9153H21.0048" stroke="white" stroke-width="4" stroke-miterlimit="10" stroke-linecap="round"/>
<path d="M33.3396 26.434C35.5352 25.0079 40.9199 23.2861 43.0116 21.3671L51.6911 20.9736C54.5126 23.0396 59.7934 25.8006 60.9956 27.4633L55.142 38.2411C55.142 38.2411 52.5807 45.8143 52.2149 47.3389C51.8491 48.8636 42.6991 49.1618 38.3079 47.6347C38.3079 47.6347 36.9984 40.8986 36.5828 40.5034C36.1673 40.1083 33.9167 38.9319 34.3366 36.0272L33.3396 26.434Z" fill="#FF0287"/>
<path d="M38.3956 47.5525C38.3956 47.5525 36.9115 40.8985 36.4959 40.5034C36.0804 40.1083 33.4648 39.6458 33.7948 36.7304C33.9607 35.2649 35.6971 32.0315 35.6971 32.0315" stroke="white" stroke-width="4" stroke-miterlimit="10" stroke-linecap="round"/>
<path d="M40.444 53.3079C40.3978 53.5601 40.1752 54.3758 39.2795 54.7808C38.2318 55.2523 38.0625 55.3156 37.1458 55.7896C36.4151 56.1683 35.9096 57.044 35.5866 57.4095C34.862 58.231 34.2981 55.7477 34.4866 55.2384C35.33 53.9848 37.09 52.3632 38.4614 51.5836C38.8675 51.3729 39.288 51.1879 39.7203 51.0299C40.8404 50.6192 42.7985 49.962 44.9653 49.2449L45.9256 52.3961L40.444 53.3079Z" fill="#FFCFC9"/>
<path d="M44.9585 49.2242C48.8992 46.7179 56.948 43.6314 56.948 43.6314L55.9003 34.1824C55.7781 31.8387 55.81 29.6969 57.5953 28.0581C59.1894 26.595 61.0873 25.9994 62.148 29.7832C62.148 29.7832 65.6592 44.0078 62.0607 48.9876C59.8782 52.0123 49.9372 53.3415 45.9476 52.4921L44.9585 49.2242Z" fill="#FF0287"/>
<path d="M44.9585 49.2244C48.8992 46.718 55.5262 44.1739 55.5262 44.1739L55.143 38.2412" stroke="white" stroke-width="4" stroke-miterlimit="10" stroke-linecap="round"/>
<path d="M44.8708 49.3064C45.4064 50.2656 45.7155 51.3222 45.777 52.4042" stroke="white" stroke-width="4" stroke-miterlimit="10" stroke-linecap="round"/>
<path d="M45.1511 49.8576L47.3729 48.7166" stroke="white" stroke-width="4" stroke-miterlimit="10" stroke-linecap="round"/>
<path d="M45.3828 50.4425L46.7945 50.0251" stroke="white" stroke-width="4" stroke-miterlimit="10" stroke-linecap="round"/>
<path d="M45.6194 51.268L48.4357 50.8564" stroke="white" stroke-width="4" stroke-miterlimit="10" stroke-linecap="round"/>
<path d="M45.7771 51.9153H47.1608" stroke="white" stroke-width="4" stroke-miterlimit="10" stroke-linecap="round"/>
<path d="M55.0203 20.062C55.0203 20.062 48.6614 24.2207 38.8226 23.7779C38.8226 23.7779 33.4797 14.0105 35.8368 12.6689C37.5985 11.1434 39.1089 10.2163 38.1329 9.00302C37.1568 7.7897 36.2175 6.00217 38.9709 4.55883C41.7244 3.1155 46.6726 0.869578 49.688 2.21187C51.9133 3.20586 50.997 5.15497 52.3371 5.19851C53.8884 5.24862 55.5476 7.05448 55.0203 9.49755C54.3402 12.6446 55.9963 14.8802 55.0203 20.062Z" fill="#170505"/>
<path d="M35.1559 18.8942C35.1559 18.8942 32.5368 14.7536 34.0376 12.316C35.8578 10.853 38.1477 10.218 37.1717 9.00466C36.1957 7.79134 35.2563 6.00381 38.0098 4.56047C40.7633 3.11714 45.7761 1.47254 48.7277 2.04757" stroke="#170505" stroke-width="3" stroke-miterlimit="10"/>
<path d="M49.6005 12.3162C49.6005 12.3162 49.1299 18.2193 51.6957 20.9745C51.6957 20.9745 48.4507 25.5986 42.9089 25.795C37.3671 25.9913 43.0163 21.368 43.0163 21.368C43.0163 21.368 44.3755 19.6429 44.1651 15.2677L49.6005 12.3162Z" fill="#FFCFC9"/>
<path d="M49.5649 12.3352C48.7923 14.2492 46.9214 18.01 44.03 18.3648C44.1762 17.3384 44.2212 16.3013 44.1645 15.2671L49.5649 12.3352Z" fill="#FAB6AD"/>
<path d="M49.6005 12.316C49.6005 12.316 47.927 16.3166 43.7444 16.3166C43.0128 16.3166 40.2105 13.6821 40.4174 9.4162C40.6243 5.15027 45.5218 5.03198 45.5218 5.03198C45.5218 5.03198 45.1726 9.4926 49.3395 10.1161C49.3395 10.1161 50.4011 9.23055 50.8236 10.0175C51.2462 10.8045 49.6005 12.316 49.6005 12.316Z" fill="#FFCFC9"/>
<path d="M45.5222 4.95239C45.5222 4.95239 43.9508 9.49516 48.1176 10.1187" stroke="#170505" stroke-width="3" stroke-miterlimit="10"/>
<path d="M50.6807 13.9557C51.3557 13.9557 51.9029 13.4408 51.9029 12.8056C51.9029 12.1704 51.3557 11.6555 50.6807 11.6555C50.0057 11.6555 49.4585 12.1704 49.4585 12.8056C49.4585 13.4408 50.0057 13.9557 50.6807 13.9557Z" stroke="white" stroke-width="4" stroke-miterlimit="10"/>
<path d="M51.5945 20.6169C51.6818 20.6078 51.8765 20.9594 51.804 21.0054C50.6805 21.7144 46.951 22.8127 44.4839 22.0881C41.2311 21.1319 43.3368 20.2694 43.6109 20.4148C44.4708 20.8592 47.9323 20.9734 51.5945 20.6169Z" fill="white" stroke="#D8BAA3" stroke-width="5" stroke-miterlimit="10" stroke-linecap="round"/>
<path d="M52.9302 20.2621C52.9302 20.2621 54.1524 18.537 55.8879 18.7711C55.8879 18.7711 55.0315 20.5545 52.9302 20.2621Z" fill="white" stroke="#D8BAA3" stroke-width="5" stroke-miterlimit="10" stroke-linecap="round"/>
<path d="M53.0583 20.4404C53.0583 20.4404 56.2728 20.4281 57.4827 22.6387C57.4827 22.6387 54.5136 23.1184 53.0583 20.4404Z" fill="white" stroke="#D8BAA3" stroke-width="5" stroke-miterlimit="10" stroke-linecap="round"/>
<path d="M52.3388 21.1436C52.7004 21.1436 52.9936 20.8678 52.9936 20.5275C52.9936 20.1872 52.7004 19.9114 52.3388 19.9114C51.9772 19.9114 51.6841 20.1872 51.6841 20.5275C51.6841 20.8678 51.9772 21.1436 52.3388 21.1436Z" fill="white" stroke="#D8BAA3" stroke-width="5" stroke-miterlimit="10" stroke-linecap="round"/>
<path d="M34.4895 55.8239H10.7289C10.4318 55.8234 10.1408 55.7437 9.8899 55.5939C9.63896 55.4442 9.43829 55.2305 9.31117 54.9778L2.07919 40.5559C2.0197 40.4376 1.993 40.307 2.00156 40.1763C2.01013 40.0456 2.05368 39.9191 2.12817 39.8085C2.20266 39.6979 2.30567 39.6068 2.42761 39.5437C2.54955 39.4807 2.68646 39.4477 2.82561 39.4478H26.2929C26.6792 39.4476 27.0576 39.5509 27.3839 39.7455C27.7103 39.9401 27.971 40.2181 28.1358 40.5469L35.2368 54.7149C35.2963 54.8334 35.3229 54.9641 35.3143 55.0949C35.3057 55.2257 35.2621 55.3523 35.1875 55.4629C35.1129 55.5736 35.0099 55.6647 34.8878 55.7278C34.7658 55.7909 34.6288 55.824 34.4895 55.8239Z" fill="#202020" stroke="#B59BFE" stroke-width="3" stroke-miterlimit="10"/>
<path d="M47.8209 55.824H9.92287C9.48991 55.824 9.13892 56.1542 9.13892 56.5617V56.7243C9.13892 57.1317 9.48991 57.462 9.92287 57.462H47.8209C48.2539 57.462 48.6049 57.1317 48.6049 56.7243V56.5617C48.6049 56.1542 48.2539 55.824 47.8209 55.824Z" fill="white" stroke="#B59BFE" stroke-width="2" stroke-miterlimit="10"/>
<path d="M42.8569 14.3581C42.7521 14.3935 42.7623 14.4564 41.7566 14.5414L41.8982 14.7415C41.9681 14.7769 42.2176 14.7537 42.3852 14.7537C43.5279 14.7537 43.7471 14.4352 43.9566 14.329C44.1661 14.2228 44.69 13.2673 44.5852 13.2673C44.4804 13.2673 44.4804 13.3735 43.9566 13.7982C43.5376 14.1379 42.8918 14.3581 42.8569 14.3581Z" fill="#474B58"/>
<path d="M43.3684 12.1022C43.3184 12.1837 43.2475 12.2504 43.163 12.2954H43.1597L43.1474 12.2995C43.1396 12.302 43.1318 12.3044 43.1236 12.3061C43.1154 12.3077 43.0989 12.3098 43.1113 12.3085H43.0887H43.0669H43.0562C43.0423 12.3055 43.0285 12.3016 43.0151 12.2967L43.0057 12.2922L42.9876 12.2823C42.9758 12.2754 42.9644 12.2679 42.9535 12.2598L42.9457 12.2533L42.9309 12.2402C42.9136 12.2245 42.8975 12.2075 42.8828 12.1894C42.8198 12.1053 42.7833 12.0044 42.7781 11.8995C42.7616 11.6809 42.8372 11.4671 42.914 11.2657C42.9962 11.0495 43.0837 10.8378 43.1228 10.6081C43.1646 10.3206 43.171 10.0291 43.1421 9.74006C43.1417 9.72346 43.1349 9.70767 43.1231 9.69593C43.1113 9.68419 43.0954 9.67742 43.0788 9.677C43.0621 9.67711 43.046 9.68379 43.0342 9.69559C43.0223 9.70739 43.0156 9.72337 43.0155 9.74006C43.0357 10.0074 43.0468 10.2793 43.0053 10.545C42.9855 10.6704 42.9544 10.7937 42.9124 10.9135C42.8713 11.0253 42.8282 11.1351 42.7859 11.2456C42.7037 11.4626 42.626 11.696 42.6544 11.9327C42.6803 12.1227 42.7756 12.3274 42.9584 12.4093C42.9966 12.4267 43.0379 12.4362 43.0798 12.4373C43.1218 12.4383 43.1635 12.4309 43.2025 12.4154C43.3208 12.3679 43.4079 12.2684 43.4781 12.1665C43.4864 12.152 43.4887 12.1349 43.4845 12.1189C43.4802 12.1028 43.4699 12.089 43.4555 12.0805C43.441 12.0724 43.4239 12.0703 43.4079 12.0745C43.3918 12.0787 43.378 12.0889 43.3693 12.103L43.3684 12.1022Z" fill="#474B58"/>
</svg>
