<svg width="320" height="213" viewBox="0 0 320 213" fill="none" xmlns="http://www.w3.org/2000/svg">
<path d="M23.5001 202.5C23.5001 161.5 -6.49998 205.5 0.000101507 178.5V74.5V0H320V153C233.991 181.911 73.4382 210.14 49.5001 212C25.562 213.86 23.5001 202.5 23.5001 202.5Z" fill="#202020"/>
<rect x="31.5" y="184.5" width="10.2656" height="17" rx="5.13281" fill="#292929" stroke="white"/>
<line class="moving--element" x1="36.5" y1="189.5" x2="36.5" y2="190.81" stroke="white" stroke-width="3" stroke-linecap="round"/>
<path d="M259.794 180.374H257.333V192.069H259.794V180.374Z" fill="#F0E1D4" stroke="#D8BAA3" stroke-width="5" stroke-miterlimit="10" stroke-linecap="round"/>
<path d="M255.997 168.835H261.048V179.727C261.047 180.024 260.921 180.31 260.697 180.52C260.473 180.731 260.169 180.849 259.853 180.849H257.189C256.872 180.849 256.569 180.73 256.345 180.52C256.121 180.309 255.995 180.023 255.995 179.725V168.835H255.997Z" fill="white" stroke="#D8BAA3" stroke-width="5" stroke-miterlimit="10" stroke-linecap="round"/>
<path d="M267.364 194.724V198.271H264.952V196.837C264.952 196.133 264.655 195.458 264.126 194.96C263.597 194.462 262.879 194.182 262.131 194.182H255.257C254.509 194.182 253.791 194.462 253.262 194.96C252.733 195.458 252.436 196.133 252.436 196.837V198.271H250.024V194.724C250.024 194.02 250.321 193.345 250.85 192.847C251.379 192.349 252.097 192.069 252.845 192.069H264.544C265.292 192.07 266.009 192.349 266.538 192.847C267.067 193.345 267.364 194.02 267.364 194.724Z" fill="#F0E1D4" stroke="#D8BAA3" stroke-width="5" stroke-miterlimit="10" stroke-linecap="round"/>
<path d="M266.145 201.678C267.529 201.678 268.65 200.623 268.65 199.321C268.65 198.018 267.529 196.963 266.145 196.963C264.761 196.963 263.639 198.018 263.639 199.321C263.639 200.623 264.761 201.678 266.145 201.678Z" fill="white" stroke="#D8BAA3" stroke-width="5" stroke-miterlimit="10" stroke-linecap="round"/>
<path d="M251.129 201.678C252.513 201.678 253.635 200.623 253.635 199.321C253.635 198.018 252.513 196.963 251.129 196.963C249.746 196.963 248.624 198.018 248.624 199.321C248.624 200.623 249.746 201.678 251.129 201.678Z" fill="white" stroke="#D8BAA3" stroke-width="5" stroke-miterlimit="10" stroke-linecap="round"/>
<path d="M264.371 163.393L270.598 146.173H275.05L268.823 163.393H264.371Z" fill="#F0E1D4" stroke="#D8BAA3" stroke-width="5" stroke-miterlimit="10" stroke-linecap="round"/>
<path d="M263.148 163.393L269.375 146.173H273.828L267.601 163.393H263.148Z" fill="white" stroke="#D8BAA3" stroke-width="5" stroke-miterlimit="10" stroke-linecap="round"/>
<path d="M278.26 165.363C278.26 165.698 277.723 166.02 276.75 166.308C273.874 167.165 267.203 167.767 259.431 167.767C252.279 167.767 246.059 167.257 242.871 166.507C242.595 166.443 242.342 166.376 242.112 166.308C241.139 166.018 240.602 165.698 240.602 165.363C240.602 165.079 240.987 164.807 241.695 164.554C244.296 163.624 251.256 162.958 259.431 162.958C269.831 162.958 278.26 164.035 278.26 165.363Z" fill="white" stroke="#D8BAA3" stroke-width="5" stroke-miterlimit="10" stroke-linecap="round"/>
<path d="M278.261 165.363V167.252C278.261 168.58 269.831 169.656 259.432 169.656C252.279 169.656 246.059 169.147 242.871 168.397C241.423 168.057 240.601 167.667 240.601 167.252V165.363C240.601 165.698 241.139 166.02 242.111 166.308C242.341 166.376 242.594 166.443 242.87 166.507C246.058 167.257 252.278 167.767 259.431 167.767C267.201 167.767 273.874 167.165 276.75 166.308C277.723 166.018 278.261 165.698 278.261 165.363Z" fill="#F0E1D4" stroke="#D8BAA3" stroke-width="5" stroke-miterlimit="10" stroke-linecap="round"/>
<path d="M287.417 135.321H263.649C263.043 135.321 262.49 135.721 262.231 136.348L255.88 153.878C255.618 154.504 256.021 155.225 256.627 155.225H280.093C280.879 155.225 281.6 154.705 281.936 153.889L288.164 136.668C288.423 136.041 288.023 135.321 287.417 135.321Z" fill="white" stroke="#D8BAA3" stroke-width="5" stroke-miterlimit="10" stroke-linecap="round"/>
<path d="M247.435 202H236.766C236.766 202 236.62 200.39 237.988 200.167C239.146 199.977 240.246 198.831 240.246 198.831C240.246 198.831 242.922 200.151 244.524 198.026C246.126 195.902 245.909 193.672 245.909 193.672C246.417 194.252 247.864 195.657 247.923 197.85C247.947 199.248 247.783 200.642 247.435 202Z" fill="#FF0287"/>
<path d="M235.783 158.261C234 158.489 232.133 161.408 234.314 167.338C236.496 173.267 242.946 191.891 242.865 193.608C242.758 195.902 240.246 198.831 240.246 198.831C240.246 198.831 242.922 200.151 244.524 198.026C246.126 195.902 245.909 193.672 245.909 193.672C245.909 193.672 246.913 182.479 244.524 170.789C243.427 165.437 238.987 157.849 235.783 158.261Z" fill="#FAB6AD"/>
<path d="M255.722 202H245.052C245.052 202 244.906 200.39 246.274 200.167C247.431 199.977 248.532 198.831 248.532 198.831C248.532 198.831 251.207 200.151 252.809 198.026C254.411 195.902 254.194 193.672 254.194 193.672C254.703 194.252 256.149 195.657 256.209 197.85C256.233 199.248 256.069 200.642 255.722 202Z" fill="#FF0287"/>
<path d="M244.069 158.209C242.627 159.221 244.343 161.758 246.526 167.688C248.708 173.619 250.217 191.495 251.151 193.608C251.005 195.322 248.532 198.831 248.532 198.831C248.532 198.831 251.207 200.151 252.809 198.026C254.411 195.902 254.194 193.672 254.194 193.672C254.194 193.672 256.318 176.907 255.14 169.734C254.258 164.348 248.074 155.397 244.069 158.209Z" fill="#FFCFC9"/>
<path d="M270.234 146.332C270.234 146.332 275.706 153.09 277.008 158.039C278.428 163.441 272.792 166.675 264.75 166.739C258.3 166.791 259.556 170.698 259.556 170.698C259.556 170.698 256.531 172.253 253.27 170.698C249.829 169.055 248.086 169.907 245.624 170.8C242.523 171.931 239.729 169.753 237.326 169.616C233.721 169.41 232.741 171.828 228.967 169.719C228.967 169.719 227.606 160.727 233.286 157.283C238.967 153.839 257.3 150.142 256.578 146.641L270.234 146.332Z" fill="#4707FB"/>
<path d="M237.768 151.597L233.849 152.173C233.355 153.3 232.19 154.58 231.941 154.704C231.671 154.836 230.269 155.547 230.269 155.547C230.269 155.547 230.002 155.113 230.228 154.734C230.377 154.487 231.294 154.064 231.189 153.719C231.083 153.373 230.535 153.413 230.292 153.515C229.711 153.761 228.667 154.376 228.778 155.292C228.874 156.065 228.119 156.138 228.119 156.138C228.119 156.138 227.723 155.152 227.696 154.966C227.669 154.779 227.83 152.932 228.307 152.389C228.687 151.96 230.543 151.119 231.578 150.685L236.816 148.453L237.768 151.597Z" fill="#FFCFC9"/>
<path d="M254.658 134.649C254.658 134.649 255.477 145.435 252.912 148.185C250.346 150.935 241.664 152.541 237.674 151.686L236.681 148.421C240.621 145.915 246.371 142.631 246.371 142.631C246.371 142.631 248.285 127.518 251.34 125.634C254.396 123.749 254.555 132.515 254.658 134.649Z" fill="#FF0287"/>
<path d="M236.715 148.506C237.251 149.465 237.56 150.522 237.621 151.604" stroke="white" stroke-width="4" stroke-miterlimit="10" stroke-linecap="round"/>
<path d="M236.995 149.058L239.217 147.917" stroke="white" stroke-width="4" stroke-miterlimit="10" stroke-linecap="round"/>
<path d="M237.227 149.642L238.638 149.225" stroke="white" stroke-width="4" stroke-miterlimit="10" stroke-linecap="round"/>
<path d="M237.463 150.468L240.279 150.056" stroke="white" stroke-width="4" stroke-miterlimit="10" stroke-linecap="round"/>
<path d="M237.621 151.115H239.005" stroke="white" stroke-width="4" stroke-miterlimit="10" stroke-linecap="round"/>
<path d="M251.34 125.634C253.535 124.208 258.92 122.486 261.012 120.567L269.691 120.174C272.513 122.24 277.793 125.001 278.996 126.663L273.142 137.441C273.142 137.441 270.581 145.014 270.215 146.539C269.849 148.064 260.699 148.362 256.308 146.835C256.308 146.835 254.998 140.099 254.583 139.703C254.167 139.308 251.917 138.132 252.337 135.227L251.34 125.634Z" fill="#FF0287"/>
<path d="M256.396 146.752C256.396 146.752 254.911 140.098 254.496 139.703C254.08 139.308 251.465 138.846 251.795 135.93C251.961 134.465 253.697 131.231 253.697 131.231" stroke="white" stroke-width="4" stroke-miterlimit="10" stroke-linecap="round"/>
<path d="M258.444 152.508C258.398 152.76 258.175 153.576 257.279 153.981C256.232 154.452 256.062 154.516 255.146 154.99C254.415 155.368 253.91 156.244 253.587 156.609C252.862 157.431 252.298 154.948 252.487 154.438C253.33 153.185 255.09 151.563 256.461 150.784C256.867 150.573 257.288 150.388 257.72 150.23C258.84 149.819 260.799 149.162 262.965 148.445L263.926 151.596L258.444 152.508Z" fill="#FFCFC9"/>
<path d="M262.958 148.424C266.899 145.918 274.948 142.831 274.948 142.831L273.9 133.382C273.778 131.039 273.81 128.897 275.595 127.258C277.189 125.795 279.087 125.199 280.148 128.983C280.148 128.983 283.659 143.208 280.061 148.188C277.878 151.212 267.937 152.541 263.948 151.692L262.958 148.424Z" fill="#FF0287"/>
<path d="M262.958 148.424C266.899 145.918 273.526 143.374 273.526 143.374L273.143 137.441" stroke="white" stroke-width="4" stroke-miterlimit="10" stroke-linecap="round"/>
<path d="M262.871 148.506C263.406 149.466 263.716 150.522 263.777 151.604" stroke="white" stroke-width="4" stroke-miterlimit="10" stroke-linecap="round"/>
<path d="M263.151 149.058L265.373 147.917" stroke="white" stroke-width="4" stroke-miterlimit="10" stroke-linecap="round"/>
<path d="M263.383 149.642L264.794 149.225" stroke="white" stroke-width="4" stroke-miterlimit="10" stroke-linecap="round"/>
<path d="M263.619 150.468L266.436 150.056" stroke="white" stroke-width="4" stroke-miterlimit="10" stroke-linecap="round"/>
<path d="M263.777 151.115H265.161" stroke="white" stroke-width="4" stroke-miterlimit="10" stroke-linecap="round"/>
<path d="M273.02 119.262C273.02 119.262 266.661 123.421 256.823 122.978C256.823 122.978 251.48 113.21 253.837 111.869C255.599 110.343 257.109 109.416 256.133 108.203C255.157 106.99 254.217 105.202 256.971 103.759C259.724 102.315 264.673 100.07 267.688 101.412C269.913 102.406 268.997 104.355 270.337 104.398C271.888 104.449 273.548 106.254 273.02 108.698C272.34 111.845 273.996 114.08 273.02 119.262Z" fill="#170505"/>
<path d="M253.156 118.094C253.156 118.094 250.537 113.954 252.038 111.516C253.858 110.053 256.148 109.418 255.172 108.205C254.196 106.991 253.256 105.204 256.01 103.76C258.763 102.317 263.776 100.672 266.728 101.248" stroke="#170505" stroke-width="3" stroke-miterlimit="10"/>
<path d="M267.6 111.516C267.6 111.516 267.13 117.419 269.696 120.174C269.696 120.174 266.451 124.799 260.909 124.995C255.367 125.191 261.016 120.568 261.016 120.568C261.016 120.568 262.376 118.843 262.165 114.468L267.6 111.516Z" fill="#FFCFC9"/>
<path d="M267.565 111.535C266.792 113.449 264.921 117.21 262.03 117.565C262.176 116.538 262.221 115.501 262.164 114.467L267.565 111.535Z" fill="#FAB6AD"/>
<path d="M267.601 111.516C267.601 111.516 265.927 115.517 261.744 115.517C261.013 115.517 258.21 112.882 258.417 108.616C258.624 104.35 263.522 104.232 263.522 104.232C263.522 104.232 263.173 108.693 267.34 109.316C267.34 109.316 268.401 108.431 268.824 109.217C269.246 110.004 267.601 111.516 267.601 111.516Z" fill="#FFCFC9"/>
<path d="M263.522 104.152C263.522 104.152 261.951 108.695 266.118 109.319" stroke="#170505" stroke-width="3" stroke-miterlimit="10"/>
<path d="M268.681 113.156C269.356 113.156 269.903 112.641 269.903 112.006C269.903 111.37 269.356 110.855 268.681 110.855C268.006 110.855 267.458 111.37 267.458 112.006C267.458 112.641 268.006 113.156 268.681 113.156Z" stroke="white" stroke-width="4" stroke-miterlimit="10"/>
<path d="M269.595 119.817C269.682 119.808 269.877 120.159 269.804 120.205C268.68 120.914 264.951 122.013 262.484 121.288C259.231 120.332 261.337 119.469 261.611 119.615C262.471 120.059 265.932 120.173 269.595 119.817Z" fill="white" stroke="#D8BAA3" stroke-width="5" stroke-miterlimit="10" stroke-linecap="round"/>
<path d="M270.93 119.462C270.93 119.462 272.152 117.737 273.888 117.971C273.888 117.971 273.032 119.754 270.93 119.462Z" fill="white" stroke="#D8BAA3" stroke-width="5" stroke-miterlimit="10" stroke-linecap="round"/>
<path d="M271.058 119.64C271.058 119.64 274.273 119.628 275.483 121.839C275.483 121.839 272.514 122.318 271.058 119.64Z" fill="white" stroke="#D8BAA3" stroke-width="5" stroke-miterlimit="10" stroke-linecap="round"/>
<path d="M270.339 120.344C270.7 120.344 270.994 120.068 270.994 119.727C270.994 119.387 270.7 119.111 270.339 119.111C269.977 119.111 269.684 119.387 269.684 119.727C269.684 120.068 269.977 120.344 270.339 120.344Z" fill="white" stroke="#D8BAA3" stroke-width="5" stroke-miterlimit="10" stroke-linecap="round"/>
<path d="M252.49 155.024H228.729C228.432 155.023 228.141 154.944 227.89 154.794C227.639 154.644 227.438 154.43 227.311 154.178L220.079 139.756C220.02 139.638 219.993 139.507 220.002 139.376C220.01 139.246 220.054 139.119 220.128 139.008C220.203 138.898 220.306 138.807 220.428 138.744C220.55 138.681 220.686 138.648 220.826 138.648H244.293C244.679 138.648 245.058 138.751 245.384 138.945C245.71 139.14 245.971 139.418 246.136 139.747L253.237 153.915C253.296 154.033 253.323 154.164 253.314 154.295C253.306 154.426 253.262 154.552 253.188 154.663C253.113 154.774 253.01 154.865 252.888 154.928C252.766 154.991 252.629 155.024 252.49 155.024Z" fill="#202020" stroke="#B59BFE" stroke-width="3" stroke-miterlimit="10"/>
<path d="M265.821 155.024H227.923C227.49 155.024 227.139 155.354 227.139 155.762V155.924C227.139 156.332 227.49 156.662 227.923 156.662H265.821C266.254 156.662 266.605 156.332 266.605 155.924V155.762C266.605 155.354 266.254 155.024 265.821 155.024Z" fill="white" stroke="#B59BFE" stroke-width="2" stroke-miterlimit="10"/>
<path d="M260.857 113.558C260.752 113.593 260.762 113.656 259.757 113.741L259.898 113.941C259.968 113.977 260.218 113.954 260.385 113.954C261.528 113.954 261.747 113.635 261.957 113.529C262.166 113.423 262.69 112.467 262.585 112.467C262.48 112.467 262.48 112.573 261.957 112.998C261.538 113.338 260.892 113.558 260.857 113.558Z" fill="#474B58"/>
<path d="M261.368 111.302C261.318 111.384 261.248 111.45 261.163 111.495H261.16L261.147 111.499C261.14 111.502 261.132 111.504 261.124 111.506C261.115 111.508 261.099 111.51 261.111 111.508H261.089H261.067H261.056C261.042 111.505 261.029 111.502 261.015 111.497L261.006 111.492L260.988 111.482C260.976 111.475 260.964 111.468 260.953 111.46L260.946 111.453L260.931 111.44C260.914 111.424 260.898 111.407 260.883 111.389C260.82 111.305 260.783 111.204 260.778 111.099C260.762 110.881 260.837 110.667 260.914 110.466C260.996 110.249 261.084 110.038 261.123 109.808C261.165 109.521 261.171 109.229 261.142 108.94C261.142 108.923 261.135 108.908 261.123 108.896C261.111 108.884 261.095 108.877 261.079 108.877C261.062 108.877 261.046 108.884 261.034 108.896C261.022 108.907 261.016 108.923 261.016 108.94C261.036 109.207 261.047 109.479 261.005 109.745C260.985 109.87 260.954 109.994 260.912 110.113C260.871 110.225 260.828 110.335 260.786 110.446C260.704 110.663 260.626 110.896 260.654 111.133C260.68 111.323 260.776 111.527 260.958 111.609C260.997 111.627 261.038 111.636 261.08 111.637C261.122 111.638 261.163 111.631 261.202 111.615C261.321 111.568 261.408 111.468 261.478 111.366C261.486 111.352 261.489 111.335 261.484 111.319C261.48 111.303 261.47 111.289 261.456 111.28C261.441 111.272 261.424 111.27 261.408 111.274C261.392 111.279 261.378 111.289 261.369 111.303L261.368 111.302Z" fill="#474B58"/>
</svg>
