<svg width="45" height="30" viewBox="0 0 45 30" fill="none" xmlns="http://www.w3.org/2000/svg">
<path d="M30.8655 11.3299V17.3854H34.524H38.1825C37.6439 19.5936 35.2824 22.6598 32.6978 22.6598H29.4633C26.4741 22.6598 24.2423 20.654 24.2423 17.9309V11.0441C24.2423 8.32204 26.7004 6.05856 29.6895 6.05856H32.6947C35.6839 6.05856 38.1825 6.23406 38.1825 8.95613H44.9769C44.9769 2.86649 39.3835 0 32.6978 0H29.6624C22.9766 0 17.5381 4.95447 17.5381 11.0441V17.9309C17.5381 24.0216 22.9766 28.976 29.6624 28.976H32.6978C32.8297 28.976 32.961 28.9734 33.092 28.9696C34.7369 28.9352 37.571 28.7462 40.8865 26.9464C44.4836 24.9938 44.7155 22.3764 44.7155 20.5464C44.7155 19.9012 44.7155 18.9025 44.7155 17.9123C44.7155 17.7806 44.7155 17.5171 44.7155 17.3854V11.3299H30.8655Z" fill="#0B0A0A"/>
<path d="M33.4458 6.09538L30.8652 6.09538V0.00372911H33.6091C40.3959 -0.134438 45.3819 3.57989 44.9766 8.96841H38.1822C37.9209 6.46596 36.4409 6.2026 33.4458 6.09538Z" fill="#FBFF32"/>
<path d="M30.4601 11.2585H37.9338H44.7155V19.6869C44.8327 21.7317 44.8327 24.8106 40.9128 27C37.4501 28.934 34.3195 28.9393 32.5507 28.9756C32.4102 28.9801 32.1697 28.9756 32.028 28.9756H30.4601V22.6536L33.5958 22.5219C36.2226 21.4682 37.2679 19.756 38.169 17.3853H30.46L30.4601 11.2585Z" fill="#FBFF32"/>
<path d="M0.277486 0H26.9161V6.07748H16.8886H6.79437V11.3793H26.9161V17.4397H16.8886L6.79437 17.4659V22.7586H26.9161V29.1098H0L0.277486 0Z" fill="#0B0A0A"/>
<path d="M26.9166 0H13.3279V6.0866H26.9166V0Z" fill="#FBFF32"/>
<path d="M26.9161 11.3794H13.3274V17.466H26.9161V11.3794Z" fill="#FBFF32"/>
<path d="M26.9161 22.7585H13.3274V29.1098H26.9161V22.7585Z" fill="#FBFF32"/>
</svg>
