<svg width="69" height="83" viewBox="0 0 69 83" fill="none" xmlns="http://www.w3.org/2000/svg">
<g clip-path="url(#clip0)">
<path d="M34.3616 0C21.0328 0 10.2012 13.046 10.2012 29.099C10.2012 34.5308 11.4497 39.8173 13.8254 44.3761L32.7238 81.625C33.0462 82.2555 33.5294 82.6437 34.0933 82.7407C34.8581 82.886 35.7041 82.4982 36.1469 81.5767L55.0994 43.9879C57.3541 39.5263 58.522 34.3369 58.522 29.099C58.522 13.046 47.6904 0 34.3616 0ZM34.3616 43.6485C27.5969 43.6485 22.2814 37.0527 22.2814 29.099C22.2814 21.0966 27.7173 14.5495 34.3616 14.5495C41.0058 14.5495 46.4418 21.0966 46.4418 29.099C46.4418 37.0042 41.2069 43.6485 34.3616 43.6485Z" fill="#5B61D9"/>
<path d="M34.3613 0V14.5495C41.0056 14.5495 46.4415 21.0966 46.4415 29.099C46.4415 37.0042 41.2066 43.6485 34.3613 43.6485V82.769C35.0484 82.7882 35.755 82.3915 36.1465 81.5767L55.099 43.988C57.3539 39.5263 58.5217 34.337 58.5217 29.099C58.5217 13.046 47.6901 0 34.3613 0Z" fill="#4246AF"/>
</g>
<defs>
<clipPath id="clip0">
<rect width="68.723" height="82.7704" fill="white"/>
</clipPath>
</defs>
</svg>
