<svg  viewBox="0 0 52 62" fill="none" xmlns="http://www.w3.org/2000/svg">
<g clip-path="url(#clip0)">
<path d="M25.9352 0.285156C16.0763 0.285156 8.06445 9.93492 8.06445 21.8088C8.06445 25.8265 8.98797 29.7368 10.7452 33.1088L24.7237 60.6607C24.9622 61.1271 25.3196 61.4142 25.7367 61.4859C26.3024 61.5934 26.9282 61.3066 27.2557 60.625L41.2743 32.8217C42.9421 29.5215 43.8059 25.6832 43.8059 21.8088C43.8059 9.93492 35.7941 0.285156 25.9352 0.285156ZM25.9352 32.5706C20.9316 32.5706 16.9998 27.6919 16.9998 21.8088C16.9998 15.8897 21.0206 11.047 25.9352 11.047C30.8497 11.047 34.8705 15.8897 34.8705 21.8088C34.8705 27.656 30.9985 32.5706 25.9352 32.5706Z" fill="#5B61D9"/>
<path d="M25.9346 0.285156V11.047C30.8491 11.047 34.8699 15.8897 34.8699 21.8088C34.8699 27.656 30.9978 32.5706 25.9346 32.5706V61.5069C26.4428 61.5211 26.9654 61.2276 27.255 60.625L41.2736 32.8217C42.9415 29.5215 43.8053 25.6832 43.8053 21.8088C43.8053 9.93492 35.7935 0.285156 25.9346 0.285156Z" fill="#4246AF"/>
</g>
<defs>
<clipPath id="clip0">
<rect width="50.8323" height="61.2228" fill="white" transform="translate(0.518555 0.285156)"/>
</clipPath>
</defs>
</svg>
