<svg class="services--background services--background--1" preserveAspectRatio="none" viewBox="0 0 328 180" fill="none" xmlns="http://www.w3.org/2000/svg">
<path d="M1 166.122V80.4078C70.8393 57.1049 196.264 5.02725 228.928 1.21965C242.182 -0.325376 253.081 6.45734 260.193 15.9974C267.766 26.1566 274.07 30.5534 278.318 34.0295C323.73 47.792 327.087 64.0272 326.747 66.8596V133.679C335.012 172.707 158.691 160.844 105.504 157.239C51.4284 185.688 33.7785 179.242 35.2913 176.02C33.3233 176.02 37.3464 162.931 40.5 156.084C39.7 156.951 39.5 155.744 39.5 155.031C8.24714 181.646 1 187.117 1 166.122Z" fill="#202020"/>
<path d="M326.747 133.679C335.012 172.707 158.691 160.844 105.504 157.239C51.4284 185.688 33.7785 179.242 35.2913 176.02C33.3233 176.02 37.3464 162.931 40.5 156.084M326.747 133.679C332.015 131.104 326.339 138.313 326.747 133.679ZM326.747 133.679V66.8596C327.087 64.0272 323.73 47.792 278.318 34.0295C274.07 30.5534 267.766 26.1566 260.193 15.9974C253.081 6.45734 242.182 -0.325376 228.928 1.21965C196.264 5.02725 70.8393 57.1048 1 80.4078L1 166.122C1 187.117 8.24714 181.646 39.5 155.031M39.5 155.031C40.5721 154.118 41.6724 153.18 42.8016 152.218C42.2049 152.727 41.3868 154.159 40.5 156.084M39.5 155.031C39.5 155.744 39.7 156.951 40.5 156.084" stroke="#202020"/>
</svg>
