<svg width="65" height="53" viewBox="0 0 65 53" fill="none" xmlns="http://www.w3.org/2000/svg">
<path d="M57.1089 24.5176L8.55444 24.5176L8.55444 51.9721L57.1089 51.9721L57.1089 24.5176Z" fill="#E6E6E6" fill-opacity="0.95"/>
<path d="M55.7205 26.8721L9.94287 26.8721L9.94287 49.7781L55.7205 49.7781L55.7205 26.8721Z" fill="white"/>
<path d="M48.065 31.1357L46.8796 31.1357L46.8796 32.5482L48.065 32.5482L48.065 31.1357Z" fill="#E6E6E6" fill-opacity="0.95"/>
<path d="M16.4464 31.1357L15.261 31.1357L15.261 32.5482L16.4464 32.5482L16.4464 31.1357Z" fill="#4707FB"/>
<path d="M19.178 35.1816L15.2266 35.1816L15.2266 39.8901L19.178 39.8901L19.178 35.1816Z" fill="#E6E6E6" fill-opacity="0.95"/>
<path d="M57.0883 22.9316L8.53394 22.9316L8.53394 25.3896L57.0883 25.3896L57.0883 22.9316Z" fill="#4707FB"/>
<path d="M10.0666 25.1616C10.2778 25.1616 10.449 24.9577 10.449 24.7061C10.449 24.4545 10.2778 24.2505 10.0666 24.2505C9.8555 24.2505 9.68433 24.4545 9.68433 24.7061C9.68433 24.9577 9.8555 25.1616 10.0666 25.1616Z" fill="white"/>
<path d="M11.5178 25.1616C11.729 25.1616 11.9001 24.9577 11.9001 24.7061C11.9001 24.4545 11.729 24.2505 11.5178 24.2505C11.3067 24.2505 11.1355 24.4545 11.1355 24.7061C11.1355 24.9577 11.3067 25.1616 11.5178 25.1616Z" fill="white"/>
<path d="M12.969 25.1616C13.1801 25.1616 13.3513 24.9577 13.3513 24.7061C13.3513 24.4545 13.1801 24.2505 12.969 24.2505C12.7578 24.2505 12.5867 24.4545 12.5867 24.7061C12.5867 24.9577 12.7578 25.1616 12.969 25.1616Z" fill="white"/>
<path d="M64.4972 51.9724L0.248047 51.9724L0.248047 52.1368L64.4972 52.1368L64.4972 51.9724Z" fill="#E6E6E6" fill-opacity="0.95"/>
<path d="M32.957 35.6526L23.2761 35.6526L23.2761 36.3144L32.957 36.3144L32.957 35.6526Z" fill="#E6E6E6" fill-opacity="0.95"/>
<path d="M38.2256 38.0679L23.2761 38.0679L23.2761 38.7299L38.2256 38.7299L38.2256 38.0679Z" fill="#4707FB"/>
<path d="M35.4596 40.3438L23.2761 40.3438L23.2761 41.0058L35.4596 41.0058L35.4596 40.3438Z" fill="#E6E6E6" fill-opacity="0.95"/>
<path d="M30.3886 42.6108L23.2761 42.6108L23.2761 43.2729L30.3886 43.2729L30.3886 42.6108Z" fill="#E6E6E6" fill-opacity="0.95"/>
<path d="M34.0108 44.8782L23.2761 44.8782L23.2761 45.5402L34.0108 45.5402L34.0108 44.8782Z" fill="#E6E6E6" fill-opacity="0.95"/>
<path d="M50.1065 31.1357L48.9211 31.1357L48.9211 32.5482L50.1065 32.5482L50.1065 31.1357Z" fill="#E6E6E6" fill-opacity="0.95"/>
<path d="M52.1483 31.1357L50.9629 31.1357L50.9629 32.5482L52.1483 32.5482L52.1483 31.1357Z" fill="#E6E6E6" fill-opacity="0.95"/>
<path opacity="0.997" d="M49.7409 43.2731C51.0704 43.2731 52.1482 41.9888 52.1482 40.4045C52.1482 38.8202 51.0704 37.5359 49.7409 37.5359C48.4113 37.5359 47.3335 38.8202 47.3335 40.4045C47.3335 41.9888 48.4113 43.2731 49.7409 43.2731Z" fill="#4707FB"/>
<path d="M13.2559 7.83103C14.7528 7.83103 15.9662 6.38514 15.9662 4.60155C15.9662 2.81796 14.7528 1.37207 13.2559 1.37207C11.7591 1.37207 10.5457 2.81796 10.5457 4.60155C10.5457 6.38514 11.7591 7.83103 13.2559 7.83103Z" fill="#170505"/>
<path d="M6.5111 32.2343L5.3241 32.2343L4.75952 26.78L6.51096 26.78L6.5111 32.2343Z" fill="#FEB8B8"/>
<path d="M4.47666 31.8301L6.76528 31.8301L6.76528 33.5471L3.03564 33.5471C3.03564 33.0917 3.18747 32.655 3.45771 32.333C3.72795 32.011 4.09448 31.8301 4.47666 31.8301Z" fill="#170505"/>
<path d="M4.65856 31.4449L3.52637 31.0214L4.35809 25.6157L6.02911 26.2407L4.65856 31.4449Z" fill="#FEB8B8"/>
<path d="M2.81851 30.3336L5.00218 31.1503L4.57071 32.7887L1.01221 31.4579C1.06887 31.2428 1.16054 31.043 1.28198 30.8701C1.40343 30.6971 1.55227 30.5544 1.72 30.45C1.88774 30.3456 2.07109 30.2816 2.25959 30.2616C2.44808 30.2417 2.63803 30.2661 2.81858 30.3337L2.81851 30.3336Z" fill="#170505"/>
<path d="M5.04485 29.2687C4.99299 29.2687 4.94156 29.2575 4.89302 29.2358L4.01969 28.8457C3.92168 28.8015 3.84025 28.7168 3.79026 28.6071C3.74026 28.4973 3.72502 28.3698 3.74731 28.2478C3.96711 27.0701 4.71622 23.0606 5.12642 20.9101C5.61287 18.3592 12.7097 17.8852 13.0115 17.8663L13.0364 17.8647L13.8347 19.0597C14.1232 20.1646 14.0317 21.0265 13.5629 21.6213C12.1949 23.3569 8.11066 22.28 7.62365 22.1437L5.45291 28.9345C5.42127 29.0328 5.36536 29.1174 5.29254 29.177C5.21972 29.2367 5.13343 29.2687 5.04506 29.2687L5.04485 29.2687Z" fill="#170505"/>
<path d="M6.30313 30.0759C6.25127 30.0759 6.19984 30.0647 6.1513 30.043L5.27825 29.6529C5.18023 29.6087 5.09879 29.524 5.04879 29.4142C4.9988 29.3045 4.98356 29.177 5.00586 29.0549C5.22566 27.8773 5.97477 23.8679 6.38497 21.7174C6.87143 19.1666 13.9682 18.6926 14.2701 18.6737L14.2949 18.6721L15.093 19.8674C15.3814 20.9723 15.29 21.8341 14.8212 22.429C13.4533 24.1641 9.36893 23.0876 8.88192 22.9512L6.71091 29.7416C6.67927 29.8399 6.62336 29.9245 6.55054 29.9842C6.47772 30.0438 6.39143 30.0758 6.30306 30.0758L6.30313 30.0759Z" fill="#170505"/>
<path d="M3.77732 13.4637C3.80938 13.5148 3.83802 13.5689 3.86296 13.6253L8.637 14.2247L9.32434 13.1018L10.8818 14.1162L9.53207 16.8408L3.67712 15.0619C3.5294 15.2335 3.34133 15.3475 3.13794 15.3886C2.93454 15.4298 2.72545 15.3962 2.53847 15.2923C2.3515 15.1884 2.1955 15.0191 2.09123 14.8069C1.98695 14.5948 1.93935 14.3499 1.95474 14.1047C1.97013 13.8596 2.04779 13.6258 2.17739 13.4345C2.30699 13.2432 2.48238 13.1035 2.68025 13.0339C2.87812 12.9643 3.08908 12.9681 3.28507 13.0449C3.48107 13.1216 3.65281 13.2677 3.77746 13.4636L3.77732 13.4637Z" fill="#FEB8B8"/>
<path d="M14.8714 20.3246C14.8024 20.3244 14.7344 20.3047 14.673 20.2671C13.7184 19.6886 11.8595 18.6869 10.1357 18.4773C10.0767 18.4704 10.0196 18.4489 9.96801 18.4142C9.91641 18.3794 9.87147 18.3322 9.83609 18.2755C9.80002 18.2182 9.77424 18.1527 9.76036 18.0831C9.74648 18.0134 9.7448 17.9411 9.75542 17.8706C9.91097 16.8446 10.2678 14.2318 10.2218 12.1379C10.2083 11.4941 10.379 10.8639 10.7058 10.351C11.0327 9.8381 11.4963 9.47299 12.0204 9.3157C12.3359 9.21652 12.6562 9.14123 12.9797 9.09029C13.3515 9.03418 13.7292 9.08261 14.0825 9.23172C14.4358 9.38083 14.7549 9.62646 15.0142 9.94895C15.2735 10.2714 15.4658 10.6618 15.5758 11.0888C15.6857 11.5158 15.7102 11.9675 15.6473 12.4078C15.3399 14.5778 15.03 17.6086 15.2993 19.7243C15.3117 19.8191 15.3018 19.9162 15.2707 20.0047C15.2397 20.0933 15.1886 20.1698 15.1233 20.2259C15.0502 20.2897 14.962 20.3243 14.8714 20.3246Z" fill="#FF0287"/>
<path d="M10.3101 14.8056C10.2506 14.8055 10.1917 14.7909 10.1371 14.7626L8.8935 14.1212C8.78757 14.0664 8.70421 13.9637 8.66171 13.8358C8.61921 13.7078 8.62104 13.565 8.6668 13.4386L9.62812 10.7924C9.68522 10.6321 9.76827 10.4867 9.87252 10.3646C9.97678 10.2425 10.1002 10.146 10.2357 10.0808C10.3713 10.0155 10.5162 9.98268 10.6624 9.98418C10.8086 9.98568 10.9531 10.0215 11.0877 10.0895C11.2222 10.1576 11.3442 10.2565 11.4467 10.3808C11.5492 10.505 11.6301 10.6521 11.6849 10.8136C11.7396 10.9751 11.7672 11.1478 11.7659 11.322C11.7647 11.4962 11.7346 11.6684 11.6775 11.8287C11.6754 11.8346 11.6733 11.8404 11.6712 11.8462L10.7099 14.4925C10.676 14.5853 10.6202 14.6644 10.5492 14.7201C10.4782 14.7757 10.3951 14.8054 10.3101 14.8056Z" fill="#FF0287"/>
<path d="M13.157 8.1902C14.47 8.1902 15.5344 6.92187 15.5344 5.35731C15.5344 3.79274 14.47 2.52441 13.157 2.52441C11.8439 2.52441 10.7795 3.79274 10.7795 5.35731C10.7795 6.92187 11.8439 8.1902 13.157 8.1902Z" fill="#FEB8B8"/>
<path d="M10.7366 3.96537C11.8627 4.78451 13.1322 5.28297 14.4464 5.42196L14.0553 4.86368C14.34 4.98912 14.6397 5.06001 14.943 5.07371C15.0949 5.07896 15.2457 5.0417 15.3833 4.96494C15.5209 4.88818 15.6415 4.77405 15.7355 4.6317C15.8121 4.48395 15.8577 4.3163 15.8682 4.14304C15.8787 3.96978 15.854 3.79606 15.796 3.63668C15.6768 3.31867 15.4913 3.04229 15.2572 2.83384C14.8422 2.44262 14.3524 2.17984 13.8314 2.0689C13.3105 1.95796 12.7746 2.00231 12.2716 2.19801C11.9265 2.32089 11.6174 2.55712 11.3798 2.87964C11.1544 3.21096 10.7206 3.50618 10.8359 3.90986L10.7366 3.96537Z" fill="#170505"/>
<path d="M13.3694 1.57879C13.8433 1.00603 14.4167 0.564016 15.0495 0.283865C15.451 0.0825539 15.8915 0.0174119 16.3222 0.0956333C16.7468 0.197438 17.1483 0.547423 17.2668 1.04387C17.3635 1.44977 17.2637 1.88684 17.1134 2.26914C16.9631 2.65144 16.7624 3.00562 16.6408 3.40198C16.5167 3.80643 16.4794 4.24138 16.5322 4.66737C16.585 5.09335 16.7263 5.49687 16.9432 5.8413C17.1601 6.18572 17.4457 6.46014 17.7742 6.63964C18.1027 6.81915 18.4636 6.89805 18.8241 6.86918C18.407 6.93588 18.0224 7.1695 17.6147 7.29375C17.2069 7.41801 16.7256 7.4097 16.4226 7.06153C16.1019 6.6932 16.0955 6.09438 16.111 5.56406L16.1801 3.19887C16.1918 2.79683 16.2019 2.38188 16.0801 2.00649C15.9584 1.63109 15.6692 1.30257 15.3316 1.30602C15.0757 1.30857 14.8493 1.49335 14.6441 1.6755C14.4388 1.85764 14.2217 2.05196 13.9668 2.0791C13.712 2.10624 13.4209 1.88174 13.44 1.57748" fill="#170505"/>
<path d="M9.15982 19.5972C9.0023 19.597 8.84678 19.5551 8.70446 19.4746C8.56215 19.3942 8.43659 19.2771 8.33682 19.1318C8.23705 18.9866 8.16557 18.8168 8.12751 18.6346C8.08945 18.4525 8.08576 18.2625 8.11672 18.0785C8.14768 17.8945 8.21251 17.7209 8.30654 17.5703C8.40057 17.4197 8.52146 17.2958 8.6605 17.2076C8.79954 17.1194 8.95327 17.069 9.11061 17.0601C9.26796 17.0512 9.425 17.084 9.57043 17.1561C9.61418 17.1781 9.65658 17.2037 9.69735 17.2328L14.0281 14.9162L14.1498 13.5166L16.0166 13.457L16.0043 15.7871C16.002 16.0571 15.9267 16.3189 15.7896 16.5339C15.6526 16.7488 15.4609 16.9053 15.2433 16.9802L10.1789 18.6977C10.1691 18.7375 10.1576 18.7767 10.1444 18.8152C10.0631 19.0464 9.92642 19.244 9.75137 19.3831C9.57631 19.5222 9.37071 19.5966 9.1603 19.5971L9.15982 19.5972Z" fill="#FEB8B8"/>
<path d="M15.8585 14.5988C15.8054 14.6308 15.7473 14.6495 15.6879 14.6537L14.3353 14.7528C14.2201 14.7611 14.1068 14.7146 14.0202 14.6234C13.9337 14.5323 13.8811 14.404 13.8739 14.2666L13.7254 11.3884C13.7076 11.0375 13.8075 10.6925 14.003 10.4293C14.1985 10.166 14.4737 10.006 14.7682 9.98444C15.0627 9.96285 15.3523 10.0814 15.5734 10.3141C15.7945 10.5468 15.9291 10.8746 15.9476 11.2255L16.0961 14.1037C16.1012 14.2048 16.0815 14.3055 16.0393 14.3935C15.9971 14.4814 15.9342 14.5528 15.8585 14.5988Z" fill="#FF0287"/>
<path d="M13.1348 19.0806L5.05581 19.0806C4.98804 19.0806 4.93311 19.146 4.93311 19.2267L4.93311 19.7415C4.93311 19.8222 4.98804 19.8876 5.05581 19.8876L13.1348 19.8876C13.2026 19.8876 13.2575 19.8222 13.2575 19.7415L13.2575 19.2267C13.2575 19.146 13.2026 19.0806 13.1348 19.0806Z" fill="#3F3D56"/>
<path d="M1.82886 19.1383L1.82886 13.4865C1.82906 13.2878 1.89541 13.0972 2.01336 12.9567C2.13131 12.8161 2.29122 12.7371 2.45803 12.7368L11.0729 12.7368C11.2397 12.737 11.3996 12.8161 11.5175 12.9566C11.6355 13.0972 11.7018 13.2878 11.702 13.4865L11.702 19.1383C11.7018 19.337 11.6355 19.5276 11.5175 19.6682C11.3996 19.8087 11.2397 19.8878 11.0729 19.888L2.45803 19.888C2.29122 19.8877 2.13131 19.8087 2.01336 19.6681C1.89541 19.5276 1.82906 19.337 1.82886 19.1383Z" fill="#3F3D56"/>
<path d="M6.86888 17.0049C7.18964 17.0049 7.44967 16.6951 7.44967 16.3129C7.44967 15.9307 7.18964 15.6208 6.86888 15.6208C6.54812 15.6208 6.28809 15.9307 6.28809 16.3129C6.28809 16.6951 6.54812 17.0049 6.86888 17.0049Z" fill="white"/>
</svg>
