<svg width="66" height="46" viewBox="0 0 66 46" fill="none" xmlns="http://www.w3.org/2000/svg">
<g clip-path="url(#clip0)">
<path d="M3.69984 45.8659C2.68165 45.7742 1.78272 44.9674 1.27151 43.9986C1.10007 43.6737 0.982606 43.2476 1.17675 42.9384C1.23232 42.8499 1.30911 42.7799 1.39867 42.7362C1.48823 42.6924 1.58708 42.6766 1.68433 42.6904C1.78157 42.7043 1.87344 42.7473 1.94981 42.8146C2.02618 42.882 2.08408 42.9712 2.11714 43.0723C2.05461 42.6927 2.02774 42.3072 2.03695 41.9216C2.04478 41.5952 2.1011 41.2261 2.34892 41.0446C2.63642 40.834 3.05083 41.0012 3.25995 41.303C3.46907 41.6047 3.52582 41.9972 3.576 42.372C3.53503 42.2134 3.53103 42.046 3.56438 41.8852C3.59773 41.7245 3.66736 41.5754 3.7669 41.4517C3.86644 41.3281 3.99271 41.2337 4.13416 41.1773C4.2756 41.1209 4.4277 41.1042 4.57654 41.1288C4.99764 41.1985 5.32752 41.5978 5.45623 42.0424C5.58495 42.487 5.54477 42.9691 5.46192 43.4267C5.36478 43.9632 5.20712 44.4954 4.92328 44.9454C4.63944 45.3954 4.21784 45.7582 3.72869 45.8682L3.69984 45.8659Z" fill="#F2F2F2"/>
<path d="M65.9998 9.64887C65.9998 11.65 65.4319 13.6016 64.3748 15.2337C63.3176 16.8658 61.8234 18.0977 60.0989 18.7588C60.0441 18.7798 59.9884 18.8007 59.9327 18.8198L59.9327 9.01533L48.3994 9.01533C48.4027 8.95434 48.4069 8.89335 48.4119 8.83327L59.9327 8.83327L59.9327 6.91806C59.9327 6.79737 59.8889 6.68163 59.8109 6.59629C59.733 6.51095 59.6273 6.46298 59.5171 6.46293L48.8723 6.46293C48.8914 6.40194 48.9114 6.34095 48.933 6.28088C49.6541 4.16089 51.0324 2.3858 52.8271 1.26572C54.6217 0.145637 56.7187 -0.248224 58.7515 0.152944C60.7844 0.554113 62.6239 1.7248 63.9488 3.4605C65.2737 5.19619 65.9996 7.38653 65.9998 9.64887Z" fill="#F2F2F2"/>
<path d="M59.5174 6.28101L19.0425 6.28101C18.8882 6.28119 18.7403 6.34839 18.6313 6.46784C18.5222 6.5873 18.4609 6.74926 18.4607 6.91819L18.4607 36.9571C18.4609 37.126 18.5222 37.288 18.6313 37.4074C18.7403 37.5269 18.8882 37.5941 19.0425 37.5943L59.5174 37.5943C59.6716 37.5941 59.8195 37.5269 59.9286 37.4074C60.0376 37.288 60.099 37.126 60.0991 36.9571L60.0991 6.91819C60.099 6.74926 60.0376 6.5873 59.9286 6.46784C59.8195 6.34839 59.6716 6.28119 59.5174 6.28101ZM59.9329 36.9571C59.9329 37.0778 59.8891 37.1935 59.8112 37.2788C59.7332 37.3642 59.6276 37.4122 59.5174 37.4122L19.0425 37.4122C18.9323 37.4122 18.8266 37.3642 18.7487 37.2788C18.6708 37.1935 18.627 37.0778 18.6269 36.9571L18.6269 6.91819C18.627 6.7975 18.6708 6.68176 18.7487 6.59642C18.8266 6.51108 18.9323 6.46311 19.0425 6.46306L59.5174 6.46306C59.6276 6.46311 59.7332 6.51108 59.8112 6.59642C59.8891 6.68176 59.9329 6.7975 59.9329 6.91819L59.9329 36.9571Z" fill="#3F3D56"/>
<path d="M60.0162 8.83325L18.5439 8.83325L18.5439 9.01531L60.0162 9.01531L60.0162 8.83325Z" fill="#3F3D56"/>
<path d="M19.9567 8.19242C20.2321 8.19242 20.4553 7.9479 20.4553 7.64626C20.4553 7.34462 20.2321 7.1001 19.9567 7.1001C19.6813 7.1001 19.458 7.34462 19.458 7.64626C19.458 7.9479 19.6813 8.19242 19.9567 8.19242Z" fill="#3F3D56"/>
<path d="M21.3903 8.19242C21.6657 8.19242 21.8889 7.9479 21.8889 7.64626C21.8889 7.34462 21.6657 7.1001 21.3903 7.1001C21.1149 7.1001 20.8916 7.34462 20.8916 7.64626C20.8916 7.9479 21.1149 8.19242 21.3903 8.19242Z" fill="#3F3D56"/>
<path d="M22.8239 8.19242C23.0993 8.19242 23.3225 7.9479 23.3225 7.64626C23.3225 7.34462 23.0993 7.1001 22.8239 7.1001C22.5485 7.1001 22.3252 7.34462 22.3252 7.64626C22.3252 7.9479 22.5485 8.19242 22.8239 8.19242Z" fill="#3F3D56"/>
<path d="M29.8467 12.5615L22.5329 12.5615C22.3787 12.5617 22.2308 12.6289 22.1218 12.7484C22.0127 12.8678 21.9513 13.0298 21.9512 13.1987L21.9512 21.2091C21.9513 21.378 22.0127 21.54 22.1218 21.6594C22.2308 21.7789 22.3787 21.8461 22.5329 21.8463L29.8467 21.8463C30.0009 21.8461 30.1488 21.7789 30.2579 21.6594C30.3669 21.54 30.4283 21.378 30.4285 21.2091L30.4285 13.1987C30.4283 13.0298 30.3669 12.8678 30.2579 12.7484C30.1488 12.6289 30.0009 12.5617 29.8467 12.5615ZM30.2622 21.2091C30.2622 21.3298 30.2184 21.4455 30.1405 21.5309C30.0626 21.6162 29.9569 21.6642 29.8467 21.6642L22.5329 21.6642C22.4227 21.6642 22.3171 21.6162 22.2392 21.5309C22.1612 21.4455 22.1174 21.3298 22.1174 21.2091L22.1174 13.1987C22.1174 13.078 22.1612 12.9623 22.2392 12.8769C22.3171 12.7916 22.4227 12.7436 22.5329 12.7436L29.8467 12.7436C29.9569 12.7436 30.0626 12.7916 30.1405 12.8769C30.2184 12.9623 30.2622 13.078 30.2622 13.1987L30.2622 21.2091Z" fill="#3F3D56"/>
<path d="M42.9782 12.6072L35.6645 12.6072C35.5213 12.6075 35.384 12.6699 35.2828 12.7808C35.1815 12.8917 35.1245 13.042 35.1243 13.1989L35.1243 21.2092C35.1245 21.366 35.1815 21.5164 35.2828 21.6273C35.384 21.7382 35.5213 21.8006 35.6645 21.8009L42.9782 21.8009C43.1214 21.8006 43.2587 21.7382 43.3599 21.6273C43.4612 21.5164 43.5182 21.366 43.5184 21.2092L43.5184 13.1989C43.5182 13.042 43.4612 12.8917 43.3599 12.7808C43.2587 12.6699 43.1214 12.6075 42.9782 12.6072Z" fill="#4707FB"/>
<path d="M56.1098 12.6072L48.7961 12.6072C48.6529 12.6075 48.5156 12.6699 48.4144 12.7808C48.3131 12.8917 48.2561 13.042 48.2559 13.1989L48.2559 21.2092C48.2561 21.366 48.3131 21.5164 48.4144 21.6273C48.5156 21.7382 48.6529 21.8006 48.7961 21.8009L56.1098 21.8009C56.253 21.8006 56.3903 21.7382 56.4915 21.6273C56.5928 21.5164 56.6498 21.366 56.65 21.2092L56.65 13.1989C56.6498 13.042 56.5928 12.8917 56.4915 12.7808C56.3903 12.6699 56.253 12.6075 56.1098 12.6072Z" fill="#E6E6E6"/>
<path d="M29.8469 24.6228L22.5331 24.6228C22.3899 24.6231 22.2527 24.6855 22.1515 24.7964C22.0502 24.9073 21.9932 25.0576 21.9929 25.2145L21.9929 33.2248C21.9932 33.3817 22.0502 33.532 22.1515 33.6429C22.2527 33.7538 22.3899 33.8162 22.5331 33.8165L29.8469 33.8165C29.9901 33.8162 30.1273 33.7538 30.2286 33.6429C30.3298 33.532 30.3868 33.3817 30.3871 33.2248L30.3871 25.2145C30.3868 25.0576 30.3298 24.9073 30.2286 24.7964C30.1273 24.6855 29.9901 24.6231 29.8469 24.6228Z" fill="#E6E6E6"/>
<path d="M42.9782 24.6228L35.6645 24.6228C35.5213 24.6231 35.384 24.6855 35.2828 24.7964C35.1815 24.9073 35.1245 25.0576 35.1243 25.2145L35.1243 33.2248C35.1245 33.3817 35.1815 33.532 35.2828 33.6429C35.384 33.7538 35.5213 33.8162 35.6645 33.8165L42.9782 33.8165C43.1214 33.8162 43.2587 33.7538 43.3599 33.6429C43.4612 33.532 43.5182 33.3817 43.5184 33.2248L43.5184 25.2145C43.5182 25.0576 43.4612 24.9073 43.3599 24.7964C43.2587 24.6855 43.1214 24.6231 42.9782 24.6228Z" fill="#4707FB"/>
<path d="M56.1098 24.6228L48.7961 24.6228C48.6529 24.6231 48.5156 24.6855 48.4144 24.7964C48.3131 24.9073 48.2561 25.0576 48.2559 25.2145L48.2559 33.2248C48.2561 33.3817 48.3131 33.532 48.4144 33.6429C48.5156 33.7538 48.6529 33.8162 48.7961 33.8165L56.1098 33.8165C56.253 33.8162 56.3903 33.7538 56.4915 33.6429C56.5928 33.532 56.6498 33.3817 56.65 33.2248L56.65 25.2145C56.6498 25.0576 56.5928 24.9073 56.4915 24.7964C56.3903 24.6855 56.253 24.6231 56.1098 24.6228Z" fill="#E6E6E6"/>
<path d="M28.06 25.9427L20.7463 25.9427C20.603 25.9426 20.4657 25.8802 20.3645 25.7692C20.2632 25.6583 20.2062 25.5079 20.2061 25.3511L20.2061 17.3407C20.2062 17.1838 20.2632 17.0334 20.3645 16.9225C20.4657 16.8116 20.603 16.7492 20.7463 16.749L28.06 16.749C28.2032 16.7492 28.3406 16.8116 28.4418 16.9225C28.5431 17.0334 28.6001 17.1838 28.6002 17.3407L28.6002 25.3511C28.6001 25.5079 28.5431 25.6583 28.4418 25.7692C28.3406 25.8802 28.2032 25.9426 28.06 25.9427Z" fill="#4707FB"/>
<path d="M16.8503 44.7933L17.8244 44.4659L17.1349 40.1951L15.6973 40.6782L16.8503 44.7933Z" fill="#A0616A"/>
<path d="M19.9805 44.825L16.9191 45.854L16.5561 44.5585L18.4347 43.927C18.59 43.8748 18.7532 43.8566 18.9149 43.8735C19.0767 43.8904 19.2338 43.942 19.3774 44.0254C19.5209 44.1087 19.648 44.2223 19.7515 44.3595C19.855 44.4967 19.9328 44.6548 19.9805 44.825Z" fill="#2F2E41"/>
<path d="M8.53947 44.8178L9.55841 44.8177L10.0431 40.5132L8.53931 40.5133L8.53947 44.8178Z" fill="#A0616A"/>
<path d="M11.5234 45.854L8.32113 45.8542L8.32107 44.4991L10.2861 44.499C10.4486 44.499 10.6095 44.534 10.7596 44.6021C10.9097 44.6702 11.0461 44.77 11.161 44.8958C11.2759 45.0216 11.367 45.171 11.4292 45.3354C11.4914 45.4998 11.5234 45.676 11.5234 45.854L11.5234 45.854Z" fill="#2F2E41"/>
<path d="M8.46629 32.3402C8.38258 32.2598 8.31598 32.1603 8.27118 32.0487C8.22638 31.9371 8.20446 31.8161 8.20698 31.6942C8.2095 31.5723 8.23639 31.4525 8.28576 31.3432C8.33513 31.2339 8.40578 31.1378 8.49272 31.0617L9.28272 20.1663L10.8893 20.6059L9.60297 31.2341C9.71008 31.4025 9.75705 31.6082 9.73498 31.812C9.71291 32.0159 9.62333 32.2038 9.48322 32.3401C9.34311 32.4764 9.1622 32.5518 8.97478 32.5518C8.78735 32.5518 8.60643 32.4765 8.46629 32.3402Z" fill="#A0616A"/>
<path d="M11.6834 15.9402C12.8107 15.9402 13.7247 14.9392 13.7247 13.7045C13.7247 12.4697 12.8107 11.4688 11.6834 11.4688C10.556 11.4688 9.64209 12.4697 9.64209 13.7045C9.64209 14.9392 10.556 15.9402 11.6834 15.9402Z" fill="#A0616A"/>
<path d="M9.90865 19.8309C9.44805 19.1384 9.43386 18.1846 9.93001 17.5221C10.2538 17.0898 10.7954 16.7439 11.6996 16.7439C14.1099 16.7439 15.0241 18.8375 15.0241 18.8375C15.0241 18.8375 16.0214 20.8401 15.4396 22.6606C14.8578 24.4812 14.8578 24.6632 14.8578 24.6632L11.0348 24.2991C11.0348 24.2991 11.6797 22.4939 9.90865 19.8309Z" fill="#FF0287"/>
<path d="M8.72974 21.6433L9.55333 18.6921C9.6085 18.4945 9.70261 18.3126 9.82903 18.1592C9.95544 18.0058 10.1111 17.8847 10.2849 17.8044C10.4588 17.7242 10.6466 17.6867 10.8351 17.6947C11.0237 17.7026 11.2083 17.7559 11.376 17.8506C11.6669 18.0156 11.8896 18.2956 11.999 18.6338C12.1084 18.9721 12.0963 19.3432 11.965 19.672L10.918 22.2837L8.72974 21.6433Z" fill="#FF0287"/>
<path d="M14.7746 24.2083L18.0159 42.5957L16.2706 43.1418L12.0319 31.0353L10.1204 43.4149L8.29196 43.688C8.29196 43.688 7.48991 27.3082 11.0346 24.2993L14.7746 24.2083Z" fill="#170505"/>
<path d="M19.4401 23.3463C19.4105 23.3849 19.3838 23.426 19.3601 23.4692L15.2432 23.6878L14.4504 21.0371L13.074 21.7536L14.3695 25.7016L19.461 24.611C19.5807 24.7541 19.7372 24.8538 19.9099 24.8971C20.0826 24.9403 20.2632 24.9249 20.4277 24.853C20.5922 24.781 20.7328 24.656 20.8309 24.4944C20.9289 24.3328 20.9797 24.1423 20.9764 23.9484C20.9732 23.7544 20.9162 23.5661 20.8129 23.4085C20.7096 23.2509 20.5649 23.1315 20.3981 23.0661C20.2313 23.0008 20.0504 22.9926 19.8792 23.0426C19.7081 23.0927 19.5549 23.1986 19.4401 23.3463Z" fill="#A0616A"/>
<path d="M12.4976 19.102C12.4755 18.8968 12.4949 18.6888 12.5544 18.4926C12.6138 18.2965 12.7118 18.1171 12.8415 17.967C12.9713 17.817 13.1295 17.7 13.305 17.6242C13.4806 17.5485 13.6692 17.516 13.8575 17.5289C14.1844 17.5519 14.4912 17.7102 14.7155 17.9717C14.9398 18.2332 15.0649 18.5784 15.0655 18.9372L15.0655 21.7895L12.8268 22.1668L12.4976 19.102Z" fill="#FF0287"/>
<path d="M12.1325 15.9606C11.8261 15.9591 11.5898 15.6058 11.6035 15.2706C11.6173 14.9354 11.8228 14.6404 12.0705 14.4429C12.3182 14.2453 12.6086 14.125 12.8848 13.9798C13.161 13.8346 13.4348 13.6534 13.6053 13.3746C13.7083 13.1922 13.7698 12.9853 13.7846 12.7713C13.7994 12.5574 13.7671 12.3427 13.6904 12.1454C13.5317 11.7506 13.2592 11.4237 12.9147 11.2147C12.4029 10.8866 11.7971 10.7817 11.2178 10.9209C10.6386 11.06 10.1285 11.4331 9.78914 11.9657L9.4394 13.0087C9.08303 13.478 9.02651 14.175 9.24557 14.7363C9.46464 15.2976 9.93108 15.7199 10.4574 15.9207C10.9914 16.1087 11.5631 16.1274 12.1064 15.9749" fill="#170505"/>
<path d="M10.267 12.487C10.1167 12.223 9.85607 12.0552 9.58667 11.9567C9.27457 11.8426 8.94264 11.8089 8.61671 11.8583C8.29078 11.9076 7.97965 12.0387 7.70756 12.2414C7.43546 12.444 7.20973 12.7127 7.04795 13.0265C6.88617 13.3403 6.79271 13.6907 6.77483 14.0506C6.74628 14.6253 6.91061 15.1874 7.00716 15.7532C7.10372 16.3191 7.12293 16.944 6.83808 17.4278C6.62112 17.7962 6.25931 18.0282 5.90218 18.2263C5.60454 18.3914 5.28259 18.5463 4.95031 18.5134C4.61803 18.4805 4.28406 18.1923 4.29287 17.827C4.18164 18.0889 4.10653 18.3675 4.07 18.6536C4.04663 18.9408 4.11127 19.2508 4.30072 19.4511C4.57608 19.7423 5.01236 19.721 5.39078 19.6582C6.20999 19.5222 7.03954 19.2672 7.68675 18.7005C8.33396 18.1339 8.76342 17.2009 8.59298 16.3128C8.52178 15.9418 8.35446 15.6031 8.21925 15.2542C8.08404 14.9052 7.97849 14.5235 8.0406 14.1506C8.07736 13.9584 8.15218 13.7775 8.25978 13.6205C8.36738 13.4635 8.50513 13.3343 8.66331 13.2419C8.98321 13.0598 9.34924 12.999 9.70407 13.0691C9.93671 13.1109 10.2272 13.1758 10.3652 12.9665C10.4017 12.9001 10.4204 12.8238 10.419 12.7464C10.4176 12.6689 10.3963 12.5935 10.3574 12.5287C10.2778 12.4007 10.1764 12.2907 10.0588 12.2047" fill="#170505"/>
<path d="M25.6384 46L0.0990027 46C0.0859831 46 0.0730833 45.9972 0.0610439 45.9918C0.0490045 45.9864 0.0380622 45.9784 0.0288426 45.9683C0.019623 45.9583 0.0123078 45.9463 0.00731668 45.9331C0.00232557 45.92 -0.000244141 45.9058 -0.000244141 45.8916C-0.000244141 45.8773 0.00232557 45.8632 0.00731668 45.85C0.0123078 45.8369 0.019623 45.8249 0.0288426 45.8148C0.0380622 45.8048 0.0490045 45.7968 0.0610439 45.7914C0.0730833 45.7859 0.0859831 45.7832 0.0990027 45.7832L25.6384 45.7832C25.6514 45.7832 25.6643 45.7859 25.6764 45.7914C25.6884 45.7968 25.6994 45.8048 25.7086 45.8148C25.7178 45.8249 25.7251 45.8369 25.7301 45.85C25.7351 45.8632 25.7377 45.8773 25.7377 45.8916C25.7377 45.9058 25.7351 45.92 25.7301 45.9331C25.7251 45.9463 25.7178 45.9583 25.7086 45.9683C25.6994 45.9784 25.6884 45.9864 25.6764 45.9918C25.6643 45.9972 25.6514 46 25.6384 46Z" fill="#3F3D56"/>
</g>
<defs>
<clipPath id="clip0">
<rect width="66" height="46" fill="white"/>
</clipPath>
</defs>
</svg>
